<svg width="28" height="19" viewBox="0 0 28 19" fill="none" xmlns="http://www.w3.org/2000/svg">
<path d="M19.9969 6.58597V15.5278C19.9969 16.3068 19.7325 16.9758 19.2038 17.5346C18.675 18.0935 18.0421 18.3729 17.305 18.3729H2.69189C1.95483 18.3729 1.32191 18.0935 0.793147 17.5346C0.264382 16.9758 0 16.3068 0 15.5278V3.33439C0 2.55537 0.264382 1.88642 0.793147 1.32756C1.32191 0.76869 1.95483 0.489258 2.69189 0.489258H6.53745C7.27452 0.489258 7.90744 0.76869 8.4362 1.32756C8.96496 1.88642 9.22935 2.55537 9.22935 3.33439V3.74084H17.305C18.0421 3.74084 18.675 4.02027 19.2038 4.57913C19.7325 5.138 19.9969 5.80694 19.9969 6.58597Z" fill="white"/>
<path d="M24 6.24318V12.8196C24 12.9468 24.044 13.0569 24.1319 13.1499C24.2199 13.2429 24.3241 13.2894 24.4444 13.2894C24.5648 13.2894 24.669 13.2429 24.7569 13.1499L27.8681 9.86169C27.956 9.76872 28 9.65862 28 9.5314C28 9.40418 27.956 9.29408 27.8681 9.20111L24.7569 5.91289C24.669 5.81992 24.5648 5.77344 24.4444 5.77344C24.3241 5.77344 24.2199 5.81992 24.1319 5.91289C24.044 6.00586 24 6.11596 24 6.24318Z" fill="#CDE7FF"/>
</svg>
