<svg width="15" height="17" viewBox="0 0 15 17" fill="none" xmlns="http://www.w3.org/2000/svg">
<path d="M13.5 3.6209H0V0.425781H13.5V3.6209ZM4.605 13.8053C4.74 14.1568 4.905 14.4923 5.085 14.8038H0.75V4.41968H12.75V8.85291C12.045 8.56535 11.2875 8.41358 10.5 8.41358C7.875 8.41358 5.5725 10.0591 4.605 12.6072L4.3875 13.2063L4.605 13.8053ZM4.5 8.41358H9V7.21541C9 6.99175 8.835 6.81602 8.625 6.81602H4.875C4.665 6.81602 4.5 6.99175 4.5 7.21541V8.41358ZM10.5 12.4075C10.08 12.4075 9.75 12.7589 9.75 13.2063C9.75 13.6536 10.08 14.005 10.5 14.005C10.92 14.005 11.25 13.6536 11.25 13.2063C11.25 12.7589 10.92 12.4075 10.5 12.4075ZM15 13.2063C14.295 15.0754 12.5475 16.4014 10.5 16.4014C8.4525 16.4014 6.705 15.0754 6 13.2063C6.705 11.3371 8.4525 10.0111 10.5 10.0111C12.5475 10.0111 14.295 11.3371 15 13.2063ZM12.375 13.2063C12.375 12.6766 12.1775 12.1687 11.8258 11.7942C11.4742 11.4197 10.9973 11.2093 10.5 11.2093C10.0027 11.2093 9.52581 11.4197 9.17418 11.7942C8.82254 12.1687 8.625 12.6766 8.625 13.2063C8.625 13.7359 8.82254 14.2438 9.17418 14.6183C9.52581 14.9928 10.0027 15.2032 10.5 15.2032C10.9973 15.2032 11.4742 14.9928 11.8258 14.6183C12.1775 14.2438 12.375 13.7359 12.375 13.2063Z" fill="#B0D6F8"/>
</svg>
