<svg width="12" height="14" viewBox="0 0 12 14" fill="none" xmlns="http://www.w3.org/2000/svg">
<path d="M6 0.78125C6.79565 0.78125 7.55871 1.11855 8.12132 1.71896C8.68393 2.31936 9 3.13369 9 3.98279C9 4.83189 8.68393 5.64621 8.12132 6.24661C7.55871 6.84702 6.79565 7.18432 6 7.18432C5.20435 7.18432 4.44129 6.84702 3.87868 6.24661C3.31607 5.64621 3 4.83189 3 3.98279C3 3.13369 3.31607 2.31936 3.87868 1.71896C4.44129 1.11855 5.20435 0.78125 6 0.78125ZM6 8.78509C9.315 8.78509 12 10.2178 12 11.9866V13.5874H0V11.9866C0 10.2178 2.685 8.78509 6 8.78509Z" fill="#F8F8F8"/>
</svg>
