<svg width="12" height="11" viewBox="0 0 12 11" fill="none" xmlns="http://www.w3.org/2000/svg">
<path d="M5.4 3.37145C5.4 4.43435 4.596 5.29236 3.6 5.29236C2.604 5.29236 1.8 4.43435 1.8 3.37145C1.8 2.30854 2.604 1.45053 3.6 1.45053C4.596 1.45053 5.4 2.30854 5.4 3.37145ZM7.2 10.4148H0V9.13419C0 7.71912 1.614 6.57297 3.6 6.57297C5.586 6.57297 7.2 7.71912 7.2 9.13419V10.4148ZM12 5.29236V6.57297H6.6V5.29236H12ZM12 2.73114V4.01175H6.6V2.73114H12ZM12 0.169922V1.45053H6.6V0.169922H12Z" fill="#F8F8F8"/>
</svg>
