<svg width="25" height="25" viewBox="0 0 25 25" fill="none" xmlns="http://www.w3.org/2000/svg">
<path d="M9.63542 22.9163L9.21875 19.583C8.99306 19.4962 8.78056 19.392 8.58125 19.2705C8.38125 19.149 8.18576 19.0188 7.99479 18.8799L4.89583 20.182L2.03125 15.234L4.71354 13.2028C4.69618 13.0813 4.6875 12.9639 4.6875 12.8507V12.1476C4.6875 12.0351 4.69618 11.9181 4.71354 11.7965L2.03125 9.7653L4.89583 4.81738L7.99479 6.11947C8.18576 5.98058 8.38542 5.85037 8.59375 5.72884C8.80208 5.60731 9.01042 5.50315 9.21875 5.41634L9.63542 2.08301H15.3646L15.7812 5.41634C16.0069 5.50315 16.2198 5.60731 16.4198 5.72884C16.6191 5.85037 16.8142 5.98058 17.0052 6.11947L20.1042 4.81738L22.9687 9.7653L20.2865 11.7965C20.3038 11.9181 20.3125 12.0351 20.3125 12.1476V12.8507C20.3125 12.9639 20.2951 13.0813 20.2604 13.2028L22.9427 15.234L20.0781 20.182L17.0052 18.8799C16.8142 19.0188 16.6146 19.149 16.4062 19.2705C16.1979 19.392 15.9896 19.4962 15.7812 19.583L15.3646 22.9163H9.63542ZM12.5521 16.1455C13.559 16.1455 14.4184 15.7896 15.1302 15.0778C15.842 14.366 16.1979 13.5066 16.1979 12.4997C16.1979 11.4927 15.842 10.6334 15.1302 9.92155C14.4184 9.20974 13.559 8.85384 12.5521 8.85384C11.5278 8.85384 10.6639 9.20974 9.96042 9.92155C9.25764 10.6334 8.90625 11.4927 8.90625 12.4997C8.90625 13.5066 9.25764 14.366 9.96042 15.0778C10.6639 15.7896 11.5278 16.1455 12.5521 16.1455Z" fill="#9A9A9A"/>
</svg>
