<svg width="36" height="23" viewBox="0 0 36 23" fill="none" xmlns="http://www.w3.org/2000/svg">
<g filter="url(#filter0_d_147_2467)">
<path d="M5.83333 9.11094C6.08796 9.11094 6.2662 9.00329 6.36806 8.78799C6.46991 8.57269 6.46991 8.35739 6.36806 8.14209C6.2662 7.92679 6.08796 7.81914 5.83333 7.81914C5.5787 7.81914 5.40046 7.92679 5.29861 8.14209C5.19676 8.35739 5.19676 8.57269 5.29861 8.78799C5.40046 9.00329 5.5787 9.11094 5.83333 9.11094ZM19.8984 8.5256C19.8348 8.43813 19.7122 8.26993 19.5308 8.02099C19.3494 7.77205 19.2173 7.59039 19.1345 7.47601C19.0518 7.36163 18.9308 7.19679 18.7717 6.98149C18.6126 6.76619 18.4773 6.5879 18.3659 6.44661C18.2545 6.30532 18.1256 6.14721 17.9792 5.97228C17.8328 5.79735 17.6895 5.63251 17.5495 5.47776L16.3559 6.89066C15.8275 7.52311 15.1639 7.8326 14.365 7.81914C13.5661 7.80569 12.912 7.47601 12.4028 6.83011C12.0399 6.36587 11.8601 5.83435 11.8633 5.23555C11.8665 4.63675 12.0527 4.10859 12.4219 3.65108L14.112 1.57209C13.9719 1.49808 13.8096 1.44258 13.625 1.40557C13.4404 1.36857 13.2892 1.34838 13.1714 1.34502C13.0537 1.34165 12.8738 1.34334 12.6319 1.35006C12.39 1.35679 12.2341 1.36016 12.1641 1.36016C11.5784 1.36016 11.0755 1.58218 10.6554 2.02624L9.1467 3.6208H7.66667V9.11094C7.6985 9.11094 7.76534 9.10926 7.86719 9.1059C7.96904 9.10253 8.03906 9.10253 8.07726 9.1059C8.11545 9.10926 8.17752 9.11599 8.26345 9.12608C8.34939 9.13617 8.41464 9.15131 8.4592 9.17149C8.50376 9.19168 8.55946 9.22027 8.6263 9.25728C8.69314 9.29428 8.75203 9.3397 8.80295 9.39352L11.6389 12.3404C12.3709 13.0873 13.0935 13.4607 13.8064 13.4607C14.303 13.4607 14.7008 13.3026 15 12.9863C15.3628 13.1209 15.7209 13.094 16.0742 12.9056C16.4275 12.7172 16.6583 12.4313 16.7665 12.0478C17.2376 12.0881 17.6418 11.9401 17.9792 11.6037C18.1065 11.4826 18.2211 11.3295 18.3229 11.1445C18.4248 10.9595 18.4693 10.7896 18.4566 10.6349C18.5203 10.7021 18.6571 10.7358 18.8672 10.7358C19.1409 10.7358 19.386 10.6651 19.6024 10.5238C19.8189 10.3826 19.9764 10.2043 20.0751 9.98896C20.1738 9.77366 20.212 9.53313 20.1897 9.26737C20.1674 9.00161 20.0703 8.75435 19.8984 8.5256ZM21.4167 9.11094H22.3333V3.94375H21.4453L19.9462 2.12716C19.526 1.61582 18.9881 1.36016 18.3325 1.36016H16.7378C16.1713 1.36016 15.7066 1.58555 15.3438 2.03633L13.3481 4.48873C13.1698 4.71076 13.0807 4.96306 13.0807 5.24564C13.0807 5.52822 13.1667 5.78053 13.3385 6.00255C13.6123 6.34569 13.9624 6.52062 14.3889 6.52735C14.8154 6.53407 15.1687 6.36924 15.4488 6.03283L17.2917 3.83274C17.4508 3.67799 17.6211 3.60566 17.8025 3.61576C17.9839 3.62585 18.1335 3.71668 18.2513 3.88824C18.3691 4.05981 18.3961 4.24988 18.3325 4.45845C18.4343 4.58629 18.6126 4.79822 18.8672 5.09426C19.1218 5.3903 19.3128 5.61905 19.4401 5.78053C19.6247 6.02274 19.8873 6.37765 20.2279 6.84525C20.5684 7.31285 20.7737 7.59712 20.8438 7.69804C21.1748 8.14209 21.3657 8.61306 21.4167 9.11094ZM24.1667 9.11094C24.4213 9.11094 24.5995 9.00329 24.7014 8.78799C24.8032 8.57269 24.8032 8.35739 24.7014 8.14209C24.5995 7.92679 24.4213 7.81914 24.1667 7.81914C23.912 7.81914 23.7338 7.92679 23.6319 8.14209C23.5301 8.35739 23.5301 8.57269 23.6319 8.78799C23.7338 9.00329 23.912 9.11094 24.1667 9.11094ZM26 3.29785V9.75684C26 9.93177 25.9395 10.0832 25.8186 10.211C25.6976 10.3388 25.5544 10.4027 25.3889 10.4027H21.2448C21.0729 10.8401 20.8119 11.1983 20.4618 11.4776C20.1117 11.7568 19.7138 11.93 19.2682 11.9973C19.0582 12.3203 18.8019 12.5944 18.4996 12.8198C18.1972 13.0452 17.8709 13.1983 17.5208 13.279C17.2535 13.6356 16.9209 13.9098 16.523 14.1015C16.1251 14.2933 15.7161 14.3757 15.296 14.3488C14.9141 14.5775 14.513 14.7104 14.0929 14.7474C13.6727 14.7844 13.2669 14.7373 12.8754 14.6061C12.4839 14.4749 12.1115 14.295 11.7582 14.0662C11.4049 13.8374 11.0755 13.565 10.77 13.2487L8.02951 10.4027H4.61111C4.4456 10.4027 4.30237 10.3388 4.18142 10.211C4.06047 10.0832 4 9.93177 4 9.75684V2.9749C4 2.79997 4.06047 2.64859 4.18142 2.52076C4.30237 2.39292 4.4456 2.329 4.61111 2.329H8.63108C8.7202 2.23481 8.86979 2.07334 9.07986 1.84458C9.28993 1.61583 9.44112 1.45435 9.53342 1.36016C9.62572 1.26596 9.76577 1.1314 9.95356 0.95647C10.1413 0.781539 10.3021 0.655387 10.4358 0.578014C10.5694 0.500641 10.7318 0.414857 10.9227 0.320664C11.1137 0.22647 11.3111 0.160871 11.5148 0.123866C11.7185 0.0868617 11.9349 0.0683594 12.1641 0.0683594H13.2812C13.9115 0.0683594 14.4876 0.256747 15.0095 0.633521C15.5315 0.256747 16.1076 0.0683594 16.7378 0.0683594H18.3325C18.5553 0.0683594 18.7685 0.0885437 18.9722 0.128912C19.1759 0.169281 19.3558 0.21806 19.5117 0.275249C19.6677 0.332438 19.8316 0.421585 20.0035 0.542691C20.1753 0.663797 20.317 0.768083 20.4284 0.855548C20.5398 0.943014 20.6766 1.07589 20.839 1.25419C21.0013 1.43248 21.1254 1.57377 21.2114 1.67806C21.2973 1.78235 21.4278 1.94382 21.6029 2.16248C21.7779 2.38115 21.91 2.5443 21.9991 2.65195H25.3889C25.5544 2.65195 25.6976 2.71587 25.8186 2.84371C25.9395 2.97154 26 3.12292 26 3.29785Z" fill="white"/>
<path d="M28 3.70803V10.2845C28 10.4117 28.044 10.5218 28.1319 10.6148C28.2199 10.7077 28.3241 10.7542 28.4444 10.7542C28.5648 10.7542 28.669 10.7077 28.7569 10.6148L31.8681 7.32654C31.956 7.23357 32 7.12347 32 6.99625C32 6.86902 31.956 6.75893 31.8681 6.66596L28.7569 3.37774C28.669 3.28477 28.5648 3.23828 28.4444 3.23828C28.3241 3.23828 28.2199 3.28477 28.1319 3.37774C28.044 3.47071 28 3.5808 28 3.70803Z" fill="#CDE7FF"/>
</g>
<defs>
<filter id="filter0_d_147_2467" x="0" y="0.0683594" width="36" height="22.6914" filterUnits="userSpaceOnUse" color-interpolation-filters="sRGB">
<feFlood flood-opacity="0" result="BackgroundImageFix"/>
<feColorMatrix in="SourceAlpha" type="matrix" values="0 0 0 0 0 0 0 0 0 0 0 0 0 0 0 0 0 0 127 0" result="hardAlpha"/>
<feOffset dy="4"/>
<feGaussianBlur stdDeviation="2"/>
<feComposite in2="hardAlpha" operator="out"/>
<feColorMatrix type="matrix" values="0 0 0 0 0 0 0 0 0 0 0 0 0 0 0 0 0 0 0.25 0"/>
<feBlend mode="normal" in2="BackgroundImageFix" result="effect1_dropShadow_147_2467"/>
<feBlend mode="normal" in="SourceGraphic" in2="effect1_dropShadow_147_2467" result="shape"/>
</filter>
</defs>
</svg>
