<svg width="15" height="16" viewBox="0 0 15 16" fill="none" xmlns="http://www.w3.org/2000/svg">
<path d="M8.03652 10.3657C8.24542 10.5178 8.52396 10.5178 8.73287 10.3657L12.2146 8.1595V8.38772C12.7021 8.38772 13.1895 8.46379 13.6073 8.69202V7.32268L14.3037 6.86623C14.6518 6.63801 14.7215 6.18156 14.5822 5.80119L13.5377 3.89933C13.468 3.74718 13.3984 3.59503 13.2591 3.51896L7.75798 0.17168C7.61871 0.0956057 7.47944 0.0195312 7.34017 0.0195312C7.2009 0.0195312 7.06163 0.0956057 6.92236 0.17168L1.49085 3.51896C1.35158 3.59503 1.21231 3.6711 1.14267 3.82325L0.098153 5.80119C-0.110751 6.18156 0.0285182 6.63801 0.376692 6.86623C0.585597 7.01838 0.864136 7.01838 1.07304 6.86623V11.0503C1.07304 11.3546 1.21231 11.5828 1.42121 11.735L6.92236 15.0823C7.06163 15.1583 7.2009 15.2344 7.34017 15.2344C7.47944 15.2344 7.61871 15.1583 7.75798 15.0823L8.38469 14.7019C8.17579 14.2455 8.10615 13.7129 8.03652 13.1804V10.3657ZM6.64382 13.1804L2.46574 10.5939V5.49689L6.64382 8.08342V13.1804ZM12.9806 5.87726L8.5936 8.61594L8.17579 7.8552L12.5628 5.11652L12.9806 5.87726ZM7.34017 6.71408V1.69317L11.5183 4.20363L7.34017 6.71408ZM12.911 9.90921V12.1914H15V13.7129H12.911V15.9952H11.5183V13.7129H9.42922V12.1914H11.5183V9.90921H12.911Z" fill="#B0D6F8"/>
</svg>
