<svg width="15" height="19" viewBox="0 0 15 19" fill="none" xmlns="http://www.w3.org/2000/svg">
<path d="M7.89474 0.833984H1.57895C0.702632 0.833984 0 1.58232 0 2.51563V15.9688C0 16.9021 0.702632 17.6504 1.57895 17.6504H7.74474C7.32632 16.8853 7.10526 16.0108 7.10526 15.128C7.10526 14.8505 7.12895 14.5646 7.16842 14.2871H1.57895V12.6055H7.74474C8.10789 11.9328 8.61316 11.3443 9.22105 10.9238H1.57895V9.2422H11.0526V10.1503C11.3132 10.1082 11.5816 10.083 11.8421 10.083C12.1026 10.083 12.3711 10.1082 12.6316 10.1503V5.87891L7.89474 0.833984ZM7.10526 6.71974V2.09522L11.4474 6.71974H7.10526ZM11.0526 11.7647V14.2871H8.68421V15.9688H11.0526V18.4912H12.6316V15.9688H15V14.2871H12.6316V11.7647H11.0526Z" fill="#B0D6F8"/>
</svg>
