<svg width="1200" height="247" viewBox="0 0 1200 247" fill="none" xmlns="http://www.w3.org/2000/svg">
<path fill-rule="evenodd" clip-rule="evenodd" d="M0 30.3541L33 48.3541C67 66.3541 133 102.354 200 84.3541C267 66.3541 333 -5.64594 400 0.354057C467 6.35406 533 90.3541 600 108.354C667 126.354 733 78.3541 800 48.3541C867 18.3541 933 6.35406 1000 24.3541C1067 42.3541 1133 90.3541 1167 114.354L1200 138.354V246.354H1167C1133 246.354 1067 246.354 1000 246.354C933 246.354 867 246.354 800 246.354C733 246.354 667 246.354 600 246.354C533 246.354 467 246.354 400 246.354C333 246.354 267 246.354 200 246.354C133 246.354 67 246.354 33 246.354H0V30.3541Z" fill="#EAC400"/>
</svg>
