<svg width="1366" height="347" viewBox="0 0 1366 347" fill="none" xmlns="http://www.w3.org/2000/svg">
<path fill-rule="evenodd" clip-rule="evenodd" d="M-5.94629 0L31.7776 0C70.6446 0 146.092 0 222.683 13.5185C299.274 27.037 374.722 54.0741 451.313 108.148C527.903 162.222 603.351 243.333 679.942 256.852C756.533 270.37 831.98 216.296 908.571 175.741C985.162 135.185 1060.61 108.148 1137.2 121.667C1213.79 135.185 1289.24 189.259 1328.11 216.296L1365.83 243.333V291.541V292.689V365H1297.35C1258.48 365 1213.79 365 1137.2 365C1060.61 365 985.162 365 908.571 365C831.98 365 756.533 365 679.942 365C603.351 365 527.903 365 451.313 365C374.722 365 299.274 365 222.683 365C146.092 365 32.9207 365 -5.94629 365L-5.94629 281.211L-5.94629 0Z" fill="#002445"/>
</svg>
