<svg width="865" height="259" viewBox="0 0 865 259" fill="none" xmlns="http://www.w3.org/2000/svg">
<path fill-rule="evenodd" clip-rule="evenodd" d="M0 0L28.7876 8.22222C57.5753 17.8148 115.151 34.2593 172.726 47.963C230.301 60.2963 287.876 68.5185 345.452 60.2963C403.027 52.0741 461.973 26.037 519.548 38.3704C577.124 52.0741 634.699 104.148 692.274 124.704C749.849 146.63 807.425 138.407 836.212 134.296L865 130.185V259H836.212C807.425 259 749.849 259 692.274 259C634.699 259 577.124 259 519.548 259C461.973 259 403.027 259 345.452 259C287.876 259 230.301 259 172.726 259C115.151 259 57.5753 259 28.7876 259H0V0Z" fill="#0F5FA9"/>
</svg>
